<?xml version="1.0" standalone="no"?>
<!DOCTYPE svg PUBLIC "-//W3C//DTD SVG 20010904//EN"
 "http://www.w3.org/TR/2001/REC-SVG-20010904/DTD/svg10.dtd">
<svg version="1.0" xmlns="http://www.w3.org/2000/svg"
 width="400.000000pt" height="109.000000pt" viewBox="0 0 400.000000 109.000000"
 preserveAspectRatio="xMidYMid meet">

<g transform="translate(0.000000,109.000000) scale(0.100000,-0.100000)"
fill="#000000" stroke="none">
<path d="M2031 399 c-13 -11 -21 -22 -18 -26 10 -9 68 18 64 30 -6 18 -21 17
-46 -4z"/>
<path d="M1531 304 c-36 -46 -28 -80 34 -140 43 -42 55 -60 55 -84 0 -23 -5
-31 -25 -36 -14 -3 -36 -3 -50 0 -20 5 -25 3 -25 -13 0 -22 19 -31 66 -31 48
0 84 37 84 85 0 31 -9 46 -55 94 -30 32 -55 65 -55 73 0 26 37 51 65 44 21 -5
25 -3 25 14 0 17 -7 20 -49 20 -42 0 -53 -4 -70 -26z"/>
<path d="M1769 288 c-43 -164 -70 -265 -74 -275 -3 -8 5 -13 20 -13 19 0 26 7
33 33 7 28 13 32 47 35 41 4 55 -8 55 -45 0 -18 6 -23 25 -23 14 0 25 5 25 12
0 6 -14 63 -31 127 -17 64 -35 133 -40 154 -14 54 -44 51 -60 -5z m44 -93 c4
-25 9 -56 13 -70 6 -23 3 -25 -25 -25 -17 0 -31 5 -31 10 0 28 25 138 31 135
3 -3 9 -25 12 -50z"/>
<path d="M1942 184 c3 -139 4 -147 27 -165 31 -25 101 -25 132 0 23 18 24 26
27 165 l4 146 -31 0 -30 0 -3 -142 -3 -143 -29 -3 c-16 -2 -32 2 -37 10 -5 7
-9 73 -9 146 l0 132 -26 0 -25 0 3 -146z"/>
<path d="M2190 165 l0 -165 48 0 c56 0 112 26 130 60 8 17 12 56 10 118 -3 92
-4 94 -36 123 -28 25 -40 29 -92 29 l-60 0 0 -165z m101 125 c20 0 39 -61 39
-125 0 -89 -19 -125 -67 -125 -23 0 -23 2 -23 123 0 68 3 127 7 131 4 3 13 4
21 1 7 -3 18 -5 23 -5z"/>
<path d="M2440 165 l0 -165 70 0 c63 0 70 2 70 20 0 17 -7 20 -45 20 l-45 0 0
55 0 55 40 0 c33 0 40 3 40 20 0 17 -7 20 -41 20 l-40 0 3 53 3 52 43 3 c28 2
42 8 42 18 0 11 -16 14 -70 14 l-70 0 0 -165z"/>
<path d="M2789 288 c-43 -164 -70 -265 -74 -275 -3 -8 5 -13 20 -13 19 0 26 7
33 33 7 28 13 32 47 35 41 4 55 -8 55 -45 0 -18 6 -23 25 -23 14 0 25 5 25 12
0 6 -14 63 -31 127 -17 64 -35 133 -40 154 -14 54 -44 51 -60 -5z m44 -93 c4
-25 9 -56 13 -70 6 -23 3 -25 -25 -25 -17 0 -31 5 -31 10 0 28 25 138 31 135
3 -3 9 -25 12 -50z"/>
<path d="M2960 166 l0 -166 25 0 25 0 0 113 1 112 43 -110 c39 -98 46 -110 70
-113 l26 -3 0 165 0 166 -26 0 -25 0 3 -114 c2 -63 0 -112 -4 -109 -5 2 -8 10
-8 16 0 7 -18 55 -39 107 -34 83 -42 95 -65 98 l-26 3 0 -165z"/>
<path d="M3210 165 l0 -165 25 0 25 0 0 165 0 165 -25 0 -25 0 0 -165z"/>
<path d="M3350 313 c0 -10 -7 -79 -15 -153 -18 -171 -19 -160 9 -160 23 0 24
3 31 113 l8 112 14 -60 c27 -118 43 -165 58 -165 14 0 22 20 49 139 19 82 26
87 26 20 0 -30 3 -78 6 -107 6 -47 9 -52 31 -52 23 0 24 3 19 38 -3 20 -10 84
-16 142 -15 142 -17 150 -40 150 -21 0 -25 -11 -58 -155 l-18 -79 -29 117
c-26 107 -31 117 -52 117 -15 0 -23 -6 -23 -17z"/>
<path d="M3679 288 c-43 -164 -70 -265 -74 -275 -3 -8 5 -13 20 -13 19 0 26 7
33 33 7 28 13 32 47 35 41 4 55 -8 55 -45 0 -18 6 -23 25 -23 14 0 25 5 25 12
0 6 -14 63 -31 127 -17 64 -35 133 -40 154 -14 54 -44 51 -60 -5z m44 -93 c4
-25 9 -56 13 -70 6 -23 3 -25 -25 -25 -17 0 -31 5 -31 10 0 28 25 138 31 135
3 -3 9 -25 12 -50z"/>
<path d="M3850 165 l0 -165 70 0 c63 0 70 2 70 20 0 17 -7 20 -45 20 l-45 0 0
145 0 145 -25 0 -25 0 0 -165z"/>
</g>
</svg>
